<?xml version="1.0" encoding="UTF-8" standalone="no"?>
<!DOCTYPE svg PUBLIC "-//W3C//DTD SVG 20010904//EN"
              "http://www.w3.org/TR/2001/REC-SVG-20010904/DTD/svg10.dtd">

<svg xmlns="http://www.w3.org/2000/svg"
     width="52.9101mm" height="52.9101mm"
     viewBox="0 0 150 150">
  <path id="Selection"
        fill="black" stroke="black" stroke-width="1"
        d="M 22.00,113.00
           C 19.95,110.10 17.67,107.24 16.19,104.00
             6.97,83.89 13.31,57.92 30.17,43.89
             35.73,39.27 39.45,37.81 45.99,35.28
             52.90,32.60 56.47,31.84 63.96,32.03
             72.55,32.25 76.06,33.12 84.00,36.70
             100.44,44.11 103.39,51.71 114.00,65.00
             114.00,65.00 116.00,52.00 116.00,52.00
             116.00,52.00 133.05,54.69 133.05,54.69
             134.93,54.98 138.86,55.22 140.04,56.79
             142.10,59.55 139.39,68.22 138.88,71.58
             138.88,71.58 132.00,113.00 132.00,113.00
             132.00,113.00 90.01,106.57 90.01,106.57
             86.68,106.02 77.85,105.26 76.11,102.49
             74.81,100.56 75.80,97.53 76.11,95.42
             76.11,95.42 79.00,79.00 79.00,79.00
             79.00,79.00 93.00,81.00 93.00,81.00
             84.57,71.04 79.95,58.77 65.00,58.08
             51.43,57.46 39.17,67.04 38.09,81.00
             37.54,88.21 39.82,92.80 43.00,99.00
             37.59,103.32 28.26,110.61 22.00,113.00 Z
           M -47.50,-33.00" />
</svg>
