<?xml version="1.0" encoding="UTF-8" standalone="no"?>
<!DOCTYPE svg PUBLIC "-//W3C//DTD SVG 20010904//EN"
              "http://www.w3.org/TR/2001/REC-SVG-20010904/DTD/svg10.dtd">

<svg xmlns="http://www.w3.org/2000/svg"
     width="52.9101mm" height="52.9101mm"
     viewBox="0 0 150 150">
  <path id="Selection"
        fill="black" stroke="black" stroke-width="1"
        d="M 38.00,65.00
           C 42.34,56.55 51.84,45.03 60.01,40.09
             68.30,35.08 77.37,32.21 87.01,32.03
             119.21,31.41 144.49,61.43 138.06,93.04
             136.05,102.94 134.72,104.92 129.00,113.00
             123.10,110.74 112.04,102.84 108.00,98.00
             119.25,81.50 109.47,59.01 89.00,58.08
             71.69,57.29 67.46,69.82 58.00,81.00
             58.00,81.00 72.00,79.00 72.00,79.00
             72.00,79.00 74.90,95.28 74.90,95.28
             75.22,97.39 76.17,100.59 74.90,102.49
             73.12,105.31 64.32,106.04 61.00,106.57
             61.00,106.57 19.00,113.00 19.00,113.00
             19.00,113.00 12.11,71.72 12.11,71.72
             11.59,68.35 8.97,59.56 10.92,56.79
             12.08,55.13 15.94,54.97 17.84,54.68
             17.84,54.68 35.00,52.00 35.00,52.00
             35.00,52.00 38.00,65.00 38.00,65.00 Z" />
</svg>
