<?xml version="1.0" encoding="UTF-8" standalone="no"?>
<!DOCTYPE svg PUBLIC "-//W3C//DTD SVG 20010904//EN"
              "http://www.w3.org/TR/2001/REC-SVG-20010904/DTD/svg10.dtd">

<svg xmlns="http://www.w3.org/2000/svg"
     width="52.9101mm" height="52.9101mm"
     viewBox="0 0 150 150">
  <path id="Selection"
        fill="black" stroke="black" stroke-width="1"
        d="M 29.00,40.00
           C 35.65,44.76 54.92,64.92 62.00,72.00
             64.39,74.39 71.90,82.96 75.00,82.96
             78.10,82.96 85.61,74.39 88.00,72.00
             95.08,64.92 114.35,44.76 121.00,40.00
             121.00,40.00 133.98,53.00 133.98,53.00
             135.42,54.51 137.80,56.76 137.80,59.00
             137.80,62.33 128.57,70.43 126.00,73.00
             126.00,73.00 90.00,109.00 90.00,109.00
             87.32,111.68 78.38,121.80 75.00,121.80
             71.67,121.80 63.57,112.57 61.00,110.00
             61.00,110.00 25.00,74.00 25.00,74.00
             22.32,71.32 12.20,62.38 12.20,59.00
             12.20,56.76 14.58,54.51 16.02,53.00
             16.02,53.00 29.00,40.00 29.00,40.00 Z" />
</svg>
