<?xml version="1.0" encoding="UTF-8" standalone="no"?>
<!DOCTYPE svg PUBLIC "-//W3C//DTD SVG 20010904//EN"
              "http://www.w3.org/TR/2001/REC-SVG-20010904/DTD/svg10.dtd">

<svg xmlns="http://www.w3.org/2000/svg"
     width="52.9101mm" height="52.9101mm"
     viewBox="0 0 150 150">
  <path id="Selection #1"
        fill="black" stroke="black" stroke-width="1"
        d="M 34.00,13.17
           C 39.55,12.69 43.32,18.32 47.00,22.00
             47.00,22.00 67.00,42.00 67.00,42.00
             68.82,43.82 73.78,49.22 76.00,49.80
             79.53,50.73 84.68,44.32 87.00,42.00
             87.00,42.00 110.00,19.00 110.00,19.00
             112.41,16.61 116.18,11.85 120.00,13.17
             123.77,14.47 135.28,25.80 133.83,30.00
             132.91,32.65 124.43,40.57 122.00,43.00
             122.00,43.00 95.00,70.00 95.00,70.00
             92.19,72.81 80.85,84.95 78.00,85.66
             75.17,86.37 72.84,83.73 71.00,81.98
             71.00,81.98 56.00,67.00 56.00,67.00
             56.00,67.00 28.00,39.00 28.00,39.00
             25.34,36.34 18.73,31.17 20.17,27.00
             21.40,23.43 30.65,15.20 34.00,13.17 Z
           M 35.00,65.00
           C 41.54,69.68 58.25,87.25 65.00,94.00
             67.27,96.27 74.00,103.96 77.00,103.96
             80.00,103.96 86.73,96.27 89.00,94.00
             95.75,87.25 112.46,69.68 119.00,65.00
             119.00,65.00 129.98,76.00 129.98,76.00
             131.42,77.51 133.80,79.76 133.80,82.00
             133.80,85.33 124.57,93.43 122.00,96.00
             122.00,96.00 90.00,128.00 90.00,128.00
             87.55,130.45 80.22,138.80 77.00,138.80
             73.78,138.80 66.45,130.45 64.00,128.00
             64.00,128.00 32.00,96.00 32.00,96.00
             29.43,93.43 20.20,85.33 20.20,82.00
             20.20,79.76 22.58,77.51 24.02,76.00
             24.02,76.00 35.00,65.00 35.00,65.00 Z" />
</svg>
