<?xml version="1.0" encoding="UTF-8" standalone="no"?>
<!DOCTYPE svg PUBLIC "-//W3C//DTD SVG 20010904//EN"
              "http://www.w3.org/TR/2001/REC-SVG-20010904/DTD/svg10.dtd">

<svg xmlns="http://www.w3.org/2000/svg"
     width="234.298mm" height="231.828mm"
     viewBox="0 0 664 657">
  <path id="Selection"
        fill="black" stroke="black" stroke-width="1"
        d="M 198.04,640.00
           C 198.04,640.00 198.04,628.00 198.04,628.00
             198.04,628.00 199.00,616.00 199.00,616.00
             199.00,616.00 199.99,547.00 199.99,547.00
             200.01,542.71 201.83,532.37 199.99,529.37
             198.28,526.63 191.89,523.35 189.00,521.67
             189.00,521.67 172.00,510.41 172.00,510.41
             159.73,502.02 139.14,483.24 129.29,472.00
             101.05,439.80 79.15,401.67 68.48,360.00
             68.48,360.00 64.88,343.00 64.88,343.00
             62.63,332.38 61.67,324.81 60.91,314.00
             60.91,314.00 60.00,304.00 60.00,304.00
             59.78,284.78 59.74,260.77 63.17,242.00
             63.17,242.00 65.19,234.00 65.19,234.00
             65.19,234.00 68.49,218.00 68.49,218.00
             68.49,218.00 71.25,210.00 71.25,210.00
             71.25,210.00 73.80,201.00 73.80,201.00
             78.27,188.31 83.72,176.02 89.76,164.00
             106.18,131.29 130.67,101.75 159.01,78.72
             189.60,53.86 219.24,38.24 257.00,26.97
             257.00,26.97 269.00,24.35 269.00,24.35
             269.00,24.35 280.00,21.46 280.00,21.46
             280.00,21.46 313.00,17.91 313.00,17.91
             313.00,17.91 332.00,16.08 332.00,16.08
             332.00,16.08 350.00,17.91 350.00,17.91
             380.96,20.03 401.90,24.04 431.00,35.39
             431.00,35.39 440.00,38.64 440.00,38.64
             484.56,58.82 522.09,87.55 551.42,127.00
             571.36,153.82 587.05,186.73 595.71,219.00
             595.71,219.00 598.81,234.00 598.81,234.00
             598.81,234.00 600.83,242.00 600.83,242.00
             604.30,260.99 604.22,285.54 604.00,305.00
             604.00,305.00 600.96,336.00 600.96,336.00
             600.96,336.00 598.96,344.00 598.96,344.00
             598.96,344.00 595.71,360.00 595.71,360.00
             589.82,381.93 580.79,403.20 569.78,423.00
             549.44,459.58 519.76,492.04 485.00,515.41
             453.12,536.85 418.72,550.61 381.00,557.42
             381.00,557.42 370.00,559.70 370.00,559.70
             370.00,559.70 351.00,561.09 351.00,561.09
             351.00,561.09 341.00,562.00 341.00,562.00
             337.19,562.04 328.24,561.60 325.09,562.70
             325.09,562.70 312.00,570.47 312.00,570.47
             312.00,570.47 288.00,585.32 288.00,585.32
             288.00,585.32 235.17,617.86 235.17,617.86
             235.17,617.86 198.04,640.00 198.04,640.00 Z
           M 353.00,349.00
           C 353.00,327.30 353.27,316.30 365.54,297.00
             372.50,286.06 382.18,276.83 390.44,266.87
             398.81,256.79 408.36,241.57 412.07,229.00
             413.32,224.74 413.71,220.38 414.28,216.00
             414.75,212.39 415.71,206.46 415.49,203.00
             415.07,196.52 413.31,183.82 410.83,178.00
             395.23,141.35 359.33,131.94 323.00,132.00
             312.33,132.02 298.23,133.55 288.00,136.44
             276.40,139.72 256.14,143.79 248.00,153.00
             248.00,153.00 259.93,189.00 259.93,189.00
             260.89,191.87 262.34,200.30 265.30,201.30
             267.80,202.14 270.93,199.90 273.00,198.74
             276.98,196.53 282.63,194.55 287.00,192.91
             292.44,190.88 298.26,190.37 304.00,189.92
             318.34,188.79 334.80,190.98 341.32,206.00
             344.93,214.32 342.93,222.01 339.77,230.00
             334.02,244.54 317.04,261.06 308.22,274.00
             296.87,290.64 290.46,307.90 289.09,328.00
             289.09,328.00 290.00,349.00 290.00,349.00
             290.00,349.00 353.00,349.00 353.00,349.00 Z
           M 315.00,369.29
           C 298.74,371.77 286.93,379.15 280.77,395.00
             270.75,420.79 286.34,453.65 316.00,454.00
             328.29,454.14 336.75,453.84 346.96,445.76
             365.79,430.86 366.94,398.47 350.54,381.43
             341.28,371.80 328.07,368.07 315.00,369.29 Z" />
</svg>
