<?xml version="1.0" encoding="UTF-8" standalone="no"?>
<!DOCTYPE svg PUBLIC "-//W3C//DTD SVG 20010904//EN"
              "http://www.w3.org/TR/2001/REC-SVG-20010904/DTD/svg10.dtd">

<svg xmlns="http://www.w3.org/2000/svg"
     width="12.8337mm" height="12.8337mm"
     viewBox="0 0 512 512">
  <path id="Selection"
        fill="black" stroke="black" stroke-width="1"
        d="M 100.00,24.00
           C 100.00,24.00 412.00,24.00 412.00,24.00
             412.00,24.00 412.00,33.00 412.00,33.00
             412.00,33.00 512.00,33.00 512.00,33.00
             511.52,43.38 501.41,72.48 497.20,83.00
             479.03,128.44 451.04,174.79 408.00,200.40
             393.66,208.93 377.48,214.97 361.00,217.72
             361.00,217.72 335.00,220.60 335.00,220.60
             331.81,221.78 328.42,225.58 326.00,228.00
             320.46,233.52 317.09,237.35 310.00,241.00
             312.42,242.20 314.82,243.22 316.72,245.22
             321.77,250.52 320.47,259.84 313.91,263.23
             309.21,265.66 299.47,265.00 294.00,265.00
             294.00,265.00 300.42,297.00 300.42,297.00
             300.42,297.00 308.42,339.00 308.42,339.00
             308.42,339.00 320.80,404.00 320.80,404.00
             320.80,404.00 328.00,442.00 328.00,442.00
             328.00,442.00 338.00,442.00 338.00,442.00
             338.00,442.00 338.00,488.00 338.00,488.00
             338.00,488.00 174.00,488.00 174.00,488.00
             174.00,488.00 174.00,442.00 174.00,442.00
             174.00,442.00 184.00,442.00 184.00,442.00
             184.00,442.00 191.20,404.00 191.20,404.00
             191.20,404.00 204.20,336.00 204.20,336.00
             204.20,336.00 218.00,265.00 218.00,265.00
             212.53,265.00 202.79,265.66 198.09,263.23
             191.53,259.84 190.23,250.52 195.28,245.22
             197.18,243.22 199.58,242.20 202.00,241.00
             194.91,237.35 191.54,233.52 186.00,228.00
             183.58,225.58 180.19,221.78 177.00,220.60
             177.00,220.60 151.00,217.72 151.00,217.72
             134.52,214.97 118.34,208.93 104.00,200.40
             60.96,174.79 32.97,128.44 14.80,83.00
             10.59,72.48 0.48,43.38 0.00,33.00
             0.00,33.00 100.00,33.00 100.00,33.00
             100.00,33.00 100.00,24.00 100.00,24.00 Z
           M 160.00,197.00
           C 160.00,197.00 141.31,166.00 141.31,166.00
             128.74,142.76 117.13,114.50 110.15,89.00
             110.15,89.00 104.40,65.00 104.40,65.00
             103.91,62.56 103.17,56.50 101.27,54.99
             99.69,53.74 95.97,54.00 94.00,54.00
             94.00,54.00 27.00,54.00 27.00,54.00
             40.66,94.92 60.65,135.72 93.00,165.07
             110.94,181.35 135.47,195.01 160.00,197.00 Z
           M 485.00,54.00
           C 485.00,54.00 418.00,54.00 418.00,54.00
             416.03,54.00 412.31,53.74 410.73,54.99
             408.83,56.50 408.09,62.56 407.60,65.00
             407.60,65.00 401.85,89.00 401.85,89.00
             394.87,114.50 383.26,142.76 370.69,166.00
             370.69,166.00 352.00,197.00 352.00,197.00
             376.53,195.01 401.06,181.35 419.00,165.07
             451.35,135.72 471.34,94.92 485.00,54.00 Z" />
</svg>
