<?xml version="1.0" encoding="UTF-8" standalone="no"?>
<!DOCTYPE svg PUBLIC "-//W3C//DTD SVG 20010904//EN"
              "http://www.w3.org/TR/2001/REC-SVG-20010904/DTD/svg10.dtd">

<svg xmlns="http://www.w3.org/2000/svg"
     width="52.9101mm" height="52.9101mm"
     viewBox="0 0 150 150">
  <path id="Selection"
        fill="black" stroke="black" stroke-width="1"
        d="M 110.00,120.00
           C 110.00,120.00 97.00,132.98 97.00,132.98
             95.49,134.42 93.24,136.80 91.00,136.80
             87.67,136.80 79.57,127.57 77.00,125.00
             77.00,125.00 41.00,89.00 41.00,89.00
             38.32,86.32 28.20,77.38 28.20,74.00
             28.20,71.31 32.20,67.82 34.00,66.00
             34.00,66.00 51.00,49.00 51.00,49.00
             51.00,49.00 79.00,21.00 79.00,21.00
             81.33,18.67 87.84,11.20 91.00,11.20
             93.24,11.20 95.49,13.58 97.00,15.02
             101.32,19.13 106.57,24.21 110.00,29.00
             110.00,29.00 78.00,61.00 78.00,61.00
             75.61,63.39 67.04,70.90 67.04,74.00
             67.04,77.10 75.61,84.61 78.00,87.00
             85.08,94.08 105.24,113.35 110.00,120.00 Z" />
</svg>
