<?xml version="1.0" encoding="UTF-8" standalone="no"?>
<!DOCTYPE svg PUBLIC "-//W3C//DTD SVG 20010904//EN"
              "http://www.w3.org/TR/2001/REC-SVG-20010904/DTD/svg10.dtd">

<svg xmlns="http://www.w3.org/2000/svg"
     width="1.06667in" height="1.16667in"
     viewBox="0 0 320 350">
  <path id="Selection"
        fill="black" stroke="black" stroke-width="1"
        d="M 109.00,244.00
           C 109.00,244.00 109.00,80.00 109.00,80.00
             109.01,77.36 108.81,74.42 110.02,72.00
             113.99,64.09 133.77,54.80 142.00,50.76
             172.36,35.83 226.41,19.26 260.00,13.75
             271.23,11.91 279.64,11.50 291.00,12.00
             296.39,12.24 303.06,13.34 306.40,18.10
             308.27,20.77 307.99,23.91 308.00,27.00
             308.00,27.00 308.00,220.00 308.00,220.00
             308.08,237.54 312.25,242.48 302.13,260.00
             288.20,284.10 254.70,300.77 227.00,296.25
             216.61,294.55 206.62,291.08 199.47,282.91
             184.25,265.53 191.19,240.66 205.17,225.00
             226.12,201.54 259.31,191.21 289.00,203.00
             289.00,203.00 289.00,129.00 289.00,129.00
             289.00,129.00 288.00,90.00 288.00,90.00
             288.00,90.00 271.00,92.43 271.00,92.43
             271.00,92.43 248.00,97.37 248.00,97.37
             219.62,104.47 192.05,114.58 165.00,125.60
             165.00,125.60 140.00,136.76 140.00,136.76
             137.01,138.23 131.53,140.61 129.60,143.21
             127.71,145.74 128.01,149.02 128.00,152.00
             128.00,152.00 128.00,263.00 128.00,263.00
             128.08,269.85 129.64,274.44 128.83,282.00
             127.78,291.79 122.04,302.47 115.91,310.00
             102.13,326.91 76.15,339.90 54.00,338.49
             35.49,337.31 17.79,330.55 12.04,311.00
             10.80,306.77 10.95,303.34 11.00,299.00
             11.40,265.04 52.79,239.08 84.00,239.08
             93.14,239.08 100.47,242.05 109.00,244.00 Z" />
</svg>
