<?xml version="1.0" encoding="UTF-8" standalone="no"?>
<!DOCTYPE svg PUBLIC "-//W3C//DTD SVG 20010904//EN"
              "http://www.w3.org/TR/2001/REC-SVG-20010904/DTD/svg10.dtd">

<svg xmlns="http://www.w3.org/2000/svg"
     width="52.9101mm" height="52.9101mm"
     viewBox="0 0 150 150">
  <path id="Selection"
        fill="black" stroke="black" stroke-width="1"
        d="M 40.00,28.00
           C 40.00,28.00 53.00,15.02 53.00,15.02
             54.51,13.58 56.76,11.20 59.00,11.20
             62.38,11.20 71.32,21.32 74.00,24.00
             74.00,24.00 110.00,60.00 110.00,60.00
             112.57,62.57 121.80,70.67 121.80,74.00
             121.80,76.69 117.80,80.18 116.00,82.00
             116.00,82.00 99.00,99.00 99.00,99.00
             99.00,99.00 71.00,127.00 71.00,127.00
             68.67,129.33 62.16,136.80 59.00,136.80
             56.76,136.80 54.51,134.42 53.00,132.98
             48.68,128.87 43.43,123.79 40.00,119.00
             40.00,119.00 72.00,87.00 72.00,87.00
             74.39,84.61 82.96,77.10 82.96,74.00
             82.96,70.90 74.39,63.39 72.00,61.00
             64.92,53.92 44.76,34.65 40.00,28.00 Z" />
</svg>
